<?xml version="1.0" encoding="utf-8"?>
<!-- Generator: Adobe Illustrator 16.0.4, SVG Export Plug-In . SVG Version: 6.00 Build 0)  -->
<!DOCTYPE svg PUBLIC "-//W3C//DTD SVG 1.1//EN" "http://www.w3.org/Graphics/SVG/1.1/DTD/svg11.dtd">
<svg version="1.1" id="Layer_1" xmlns="http://www.w3.org/2000/svg" xmlns:xlink="http://www.w3.org/1999/xlink" x="0px" y="0px"
	 viewBox="0 0 48 48" enable-background="new 0 0 48 48" xml:space="preserve">
<path fill="#3C5A99" d="M4,0h40c2.209,0,4,1.791,4,4v40c0,2.209-1.791,4-4,4H4c-2.209,0-4-1.791-4-4V4C0,1.792,1.791,0,4,0z"/>
<path id="f" fill="#FFFFFF" d="M33.044,47.946V29.4h6.227l0.932-7.229h-7.158v-4.614c0-2.093,0.581-3.519,3.583-3.519l3.826-0.001
	V7.572c-0.662-0.088-2.933-0.285-5.575-0.285c-5.52,0-9.298,3.368-9.298,9.554v5.33h-6.24V29.4h6.24v18.546H33.044z"/>
</svg>
