<?xml version="1.0" encoding="utf-8"?>
<!-- Generator: Adobe Illustrator 16.0.4, SVG Export Plug-In . SVG Version: 6.00 Build 0)  -->
<!DOCTYPE svg PUBLIC "-//W3C//DTD SVG 1.1//EN" "http://www.w3.org/Graphics/SVG/1.1/DTD/svg11.dtd">
<svg version="1.1" id="Layer_1" xmlns="http://www.w3.org/2000/svg" xmlns:xlink="http://www.w3.org/1999/xlink" x="0px" y="0px"
	 viewBox="0 0 48 48" enable-background="new 0 0 48 48" xml:space="preserve">
<path fill="#27AAE1" d="M4,0h40c2.209,0,4,1.791,4,4v40c0,2.209-1.791,4-4,4H4c-2.209,0-4-1.791-4-4V4C0,1.792,1.791,0,4,0z"/>
<path fill-rule="evenodd" clip-rule="evenodd" fill="#FFFFFF" d="M30.342,9.602c2.798-0.05,4.287,0.978,5.709,2.284
	c1.207-0.104,2.775-0.784,3.699-1.257c0.3-0.166,0.6-0.331,0.898-0.496c-0.527,1.438-1.243,2.563-2.343,3.417
	c-0.244,0.189-0.487,0.446-0.793,0.566c0,0.006,0,0.012,0,0.018c1.567-0.017,2.86-0.729,4.087-1.116c0,0.006,0,0.012,0,0.018
	c-0.645,1.034-1.518,2.082-2.448,2.833c-0.376,0.301-0.752,0.602-1.128,0.903c0.021,1.673-0.024,3.269-0.334,4.675
	c-1.805,8.171-6.582,13.719-14.147,16.095c-2.716,0.854-7.105,1.204-10.218,0.425c-1.544-0.386-2.938-0.821-4.246-1.398
	c-0.727-0.32-1.399-0.667-2.044-1.062c-0.211-0.13-0.423-0.26-0.634-0.39c0.702,0.021,1.523,0.217,2.308,0.089
	c0.71-0.116,1.406-0.086,2.062-0.23c1.634-0.361,3.084-0.839,4.334-1.576c0.605-0.356,1.525-0.776,1.955-1.292
	c-0.811,0.015-1.546-0.175-2.149-0.39c-2.336-0.831-3.695-2.36-4.58-4.656c0.708,0.077,2.747,0.264,3.224-0.143
	c-0.891-0.049-1.748-0.569-2.36-0.956c-1.879-1.185-3.412-3.173-3.4-6.232c0.247,0.118,0.493,0.236,0.74,0.354
	c0.472,0.2,0.952,0.308,1.515,0.425c0.238,0.049,0.714,0.19,0.987,0.088c-0.013,0-0.024,0-0.036,0
	c-0.363-0.427-0.955-0.711-1.321-1.168c-1.205-1.511-2.335-3.835-1.62-6.604c0.181-0.702,0.469-1.322,0.775-1.895
	c0.012,0.006,0.023,0.012,0.035,0.018c0.14,0.296,0.453,0.514,0.651,0.762c0.616,0.769,1.375,1.461,2.149,2.071
	c2.637,2.079,5.012,3.356,8.826,4.303c0.968,0.24,2.086,0.423,3.242,0.425c-0.325-0.953-0.221-2.495,0.035-3.417
	c0.643-2.319,2.039-3.991,4.087-4.887c0.489-0.214,1.032-0.37,1.603-0.496C29.755,9.672,30.049,9.637,30.342,9.602z"/>
</svg>
